<?xml version="1.0" encoding="UTF-8"?>
<svg xmlns="http://www.w3.org/2000/svg" xmlns:xlink="http://www.w3.org/1999/xlink" width="64px" height="64px" viewBox="0 0 64 64" version="1.1">
<defs>
<clipPath id="clip1">
  <path d="M 24.449219 33.152344 L 39.550781 33.152344 L 39.550781 35.796875 L 24.449219 35.796875 Z M 24.449219 33.152344 "/>
</clipPath>
<filter id="alpha" filterUnits="objectBoundingBox" x="0%" y="0%" width="100%" height="100%">
  <feColorMatrix type="matrix" in="SourceGraphic" values="0 0 0 0 1 0 0 0 0 1 0 0 0 0 1 0 0 0 1 0"/>
</filter>
<mask id="mask0">
  <g filter="url(#alpha)">
<rect x="0" y="0" width="64" height="64" style="fill:rgb(0%,0%,0%);fill-opacity:0.290196;stroke:none;"/>
  </g>
</mask>
<clipPath id="clip2">
  <rect x="0" y="0" width="64" height="64"/>
</clipPath>
<g id="surface5" clip-path="url(#clip2)">
<path style=" stroke:none;fill-rule:nonzero;fill:rgb(0%,0%,0%);fill-opacity:1;" d="M 24.449219 33.152344 C 24.449219 33.152344 31.230469 37.886719 39.550781 33.152344 C 39.550781 33.152344 38.101562 35.796875 32 35.796875 C 25.898438 35.796875 24.449219 33.152344 24.449219 33.152344 "/>
</g>
<clipPath id="clip3">
  <path d="M 29.976562 42.324219 L 31.316406 42.324219 L 31.316406 43.054688 L 29.976562 43.054688 Z M 29.976562 42.324219 "/>
</clipPath>
<mask id="mask1">
  <g filter="url(#alpha)">
<rect x="0" y="0" width="64" height="64" style="fill:rgb(0%,0%,0%);fill-opacity:0.290196;stroke:none;"/>
  </g>
</mask>
<clipPath id="clip4">
  <rect x="0" y="0" width="64" height="64"/>
</clipPath>
<g id="surface8" clip-path="url(#clip4)">
<path style=" stroke:none;fill-rule:nonzero;fill:rgb(0%,0%,0%);fill-opacity:1;" d="M 29.996094 42.324219 C 29.996094 42.324219 30.59375 43.195312 31.316406 42.519531 C 31.316406 42.519531 31.1875 43.125 30.59375 43.050781 C 29.824219 42.953125 29.996094 42.324219 29.996094 42.324219 "/>
</g>
<clipPath id="clip5">
  <path d="M 32.625 42.324219 L 33.960938 42.324219 L 33.960938 43.054688 L 32.625 43.054688 Z M 32.625 42.324219 "/>
</clipPath>
<mask id="mask2">
  <g filter="url(#alpha)">
<rect x="0" y="0" width="64" height="64" style="fill:rgb(0%,0%,0%);fill-opacity:0.290196;stroke:none;"/>
  </g>
</mask>
<clipPath id="clip6">
  <rect x="0" y="0" width="64" height="64"/>
</clipPath>
<g id="surface11" clip-path="url(#clip6)">
<path style=" stroke:none;fill-rule:nonzero;fill:rgb(0%,0%,0%);fill-opacity:1;" d="M 33.945312 42.324219 C 33.945312 42.324219 33.347656 43.195312 32.625 42.519531 C 32.625 42.519531 32.753906 43.125 33.347656 43.050781 C 34.117188 42.953125 33.945312 42.324219 33.945312 42.324219 "/>
</g>
<clipPath id="clip7">
  <path d="M 27.425781 39.722656 L 29.835938 39.722656 L 29.835938 41.308594 L 27.425781 41.308594 Z M 27.425781 39.722656 "/>
</clipPath>
<mask id="mask3">
  <g filter="url(#alpha)">
<rect x="0" y="0" width="64" height="64" style="fill:rgb(0%,0%,0%);fill-opacity:0.290196;stroke:none;"/>
  </g>
</mask>
<clipPath id="clip8">
  <rect x="0" y="0" width="64" height="64"/>
</clipPath>
<g id="surface14" clip-path="url(#clip8)">
<path style=" stroke:none;fill-rule:nonzero;fill:rgb(0%,0%,0%);fill-opacity:1;" d="M 27.433594 39.722656 C 27.433594 39.722656 27.734375 40.363281 29.824219 41.300781 C 30.035156 41.394531 27.265625 40.746094 27.433594 39.722656 "/>
</g>
<clipPath id="clip9">
  <path d="M 34.234375 39.578125 L 36.441406 39.578125 L 36.441406 41.457031 L 34.234375 41.457031 Z M 34.234375 39.578125 "/>
</clipPath>
<mask id="mask4">
  <g filter="url(#alpha)">
<rect x="0" y="0" width="64" height="64" style="fill:rgb(0%,0%,0%);fill-opacity:0.290196;stroke:none;"/>
  </g>
</mask>
<clipPath id="clip10">
  <rect x="0" y="0" width="64" height="64"/>
</clipPath>
<g id="surface17" clip-path="url(#clip10)">
<path style=" stroke:none;fill-rule:nonzero;fill:rgb(0%,0%,0%);fill-opacity:1;" d="M 36.417969 39.578125 C 36.417969 39.578125 36.199219 40.25 34.246094 41.445312 C 34.050781 41.566406 36.714844 40.570312 36.417969 39.578125 "/>
</g>
<clipPath id="clip11">
  <path d="M 26.792969 44.414062 L 29.273438 44.414062 L 29.273438 45.523438 L 26.792969 45.523438 Z M 26.792969 44.414062 "/>
</clipPath>
<mask id="mask5">
  <g filter="url(#alpha)">
<rect x="0" y="0" width="64" height="64" style="fill:rgb(0%,0%,0%);fill-opacity:0.290196;stroke:none;"/>
  </g>
</mask>
<clipPath id="clip12">
  <rect x="0" y="0" width="64" height="64"/>
</clipPath>
<g id="surface20" clip-path="url(#clip12)">
<path style=" stroke:none;fill-rule:nonzero;fill:rgb(0%,0%,0%);fill-opacity:1;" d="M 26.792969 45.183594 C 26.792969 45.183594 27.222656 45.78125 29.269531 44.414062 C 29.269531 44.414062 29.398438 44.84375 28.332031 45.226562 C 27.265625 45.609375 26.921875 45.652344 26.792969 45.183594 "/>
</g>
<clipPath id="clip13">
  <path d="M 34.730469 44.457031 L 37.210938 44.457031 L 37.210938 45.566406 L 34.730469 45.566406 Z M 34.730469 44.457031 "/>
</clipPath>
<mask id="mask6">
  <g filter="url(#alpha)">
<rect x="0" y="0" width="64" height="64" style="fill:rgb(0%,0%,0%);fill-opacity:0.290196;stroke:none;"/>
  </g>
</mask>
<clipPath id="clip14">
  <rect x="0" y="0" width="64" height="64"/>
</clipPath>
<g id="surface23" clip-path="url(#clip14)">
<path style=" stroke:none;fill-rule:nonzero;fill:rgb(0%,0%,0%);fill-opacity:1;" d="M 37.210938 45.226562 C 37.210938 45.226562 36.785156 45.824219 34.734375 44.457031 C 34.734375 44.457031 34.609375 44.886719 35.675781 45.269531 C 36.742188 45.652344 37.082031 45.695312 37.210938 45.226562 "/>
</g>
<clipPath id="clip15">
  <path d="M 28.800781 43.050781 L 32.042969 43.050781 L 32.042969 43.789062 L 28.800781 43.789062 Z M 28.800781 43.050781 "/>
</clipPath>
<mask id="mask7">
  <g filter="url(#alpha)">
<rect x="0" y="0" width="64" height="64" style="fill:rgb(0%,0%,0%);fill-opacity:0.290196;stroke:none;"/>
  </g>
</mask>
<clipPath id="clip16">
  <rect x="0" y="0" width="64" height="64"/>
</clipPath>
<g id="surface26" clip-path="url(#clip16)">
<path style=" stroke:none;fill-rule:nonzero;fill:rgb(0%,0%,0%);fill-opacity:1;" d="M 32.042969 43.136719 C 32.042969 43.136719 30.761719 43.777344 29.011719 43.050781 C 29.011719 43.050781 28.800781 43.222656 28.800781 43.476562 C 28.800781 43.476562 28.886719 43.265625 29.824219 43.648438 C 30.761719 44.03125 32.042969 43.519531 32.042969 43.519531 Z M 32.042969 43.136719 "/>
</g>
<clipPath id="clip17">
  <path d="M 32.042969 43.050781 L 35.199219 43.050781 L 35.199219 43.789062 L 32.042969 43.789062 Z M 32.042969 43.050781 "/>
</clipPath>
<mask id="mask8">
  <g filter="url(#alpha)">
<rect x="0" y="0" width="64" height="64" style="fill:rgb(0%,0%,0%);fill-opacity:0.290196;stroke:none;"/>
  </g>
</mask>
<clipPath id="clip18">
  <rect x="0" y="0" width="64" height="64"/>
</clipPath>
<g id="surface29" clip-path="url(#clip18)">
<path style=" stroke:none;fill-rule:nonzero;fill:rgb(0%,0%,0%);fill-opacity:1;" d="M 32.042969 43.136719 C 32.042969 43.136719 33.324219 43.777344 35.070312 43.050781 C 35.070312 43.050781 35.199219 43.222656 35.199219 43.476562 C 35.199219 43.476562 35.199219 43.265625 34.261719 43.648438 C 33.324219 44.03125 32.042969 43.519531 32.042969 43.519531 Z M 32.042969 43.136719 "/>
</g>
<clipPath id="clip19">
  <path d="M 36.394531 39.464844 L 38.144531 39.464844 L 38.144531 41.898438 L 36.394531 41.898438 Z M 36.394531 39.464844 "/>
</clipPath>
<mask id="mask9">
  <g filter="url(#alpha)">
<rect x="0" y="0" width="64" height="64" style="fill:rgb(0%,0%,0%);fill-opacity:0.290196;stroke:none;"/>
  </g>
</mask>
<clipPath id="clip20">
  <rect x="0" y="0" width="64" height="64"/>
</clipPath>
<g id="surface32" clip-path="url(#clip20)">
<path style=" stroke:none;fill-rule:nonzero;fill:rgb(0%,0%,0%);fill-opacity:1;" d="M 36.394531 41.171875 C 36.394531 41.171875 37.078125 41.386719 37.246094 41.898438 C 37.246094 41.898438 38.058594 40.320312 38.144531 39.464844 C 38.144531 39.464844 37.503906 41.046875 36.394531 41.171875 "/>
</g>
<clipPath id="clip21">
  <path d="M 39.867188 37.246094 L 41.214844 37.246094 L 41.214844 37.753906 L 39.867188 37.753906 Z M 39.867188 37.246094 "/>
</clipPath>
<mask id="mask10">
  <g filter="url(#alpha)">
<rect x="0" y="0" width="64" height="64" style="fill:rgb(0%,0%,0%);fill-opacity:0.290196;stroke:none;"/>
  </g>
</mask>
<clipPath id="clip22">
  <rect x="0" y="0" width="64" height="64"/>
</clipPath>
<g id="surface35" clip-path="url(#clip22)">
<path style=" stroke:none;fill-rule:nonzero;fill:rgb(0%,0%,0%);fill-opacity:1;" d="M 40.191406 37.246094 C 40.191406 37.246094 40.40625 37.800781 41.214844 37.332031 C 41.214844 37.332031 40.832031 37.972656 40.191406 37.675781 C 39.550781 37.375 40.019531 37.246094 40.191406 37.246094 "/>
</g>
<clipPath id="clip23">
  <path d="M 26.625 19.542969 L 28.375 19.542969 L 28.375 20.40625 L 26.625 20.40625 Z M 26.625 19.542969 "/>
</clipPath>
<mask id="mask11">
  <g filter="url(#alpha)">
<rect x="0" y="0" width="64" height="64" style="fill:rgb(0%,0%,0%);fill-opacity:0.290196;stroke:none;"/>
  </g>
</mask>
<clipPath id="clip24">
  <rect x="0" y="0" width="64" height="64"/>
</clipPath>
<g id="surface38" clip-path="url(#clip24)">
<path style=" stroke:none;fill-rule:nonzero;fill:rgb(0%,0%,0%);fill-opacity:1;" d="M 26.625 20.136719 C 26.625 20.136719 28.03125 20.011719 28.375 19.542969 C 28.375 19.542969 28.074219 20.992188 26.625 20.136719 "/>
</g>
<clipPath id="clip25">
  <path d="M 35.414062 19.542969 L 37.164062 19.542969 L 37.164062 20.40625 L 35.414062 20.40625 Z M 35.414062 19.542969 "/>
</clipPath>
<mask id="mask12">
  <g filter="url(#alpha)">
<rect x="0" y="0" width="64" height="64" style="fill:rgb(0%,0%,0%);fill-opacity:0.290196;stroke:none;"/>
  </g>
</mask>
<clipPath id="clip26">
  <rect x="0" y="0" width="64" height="64"/>
</clipPath>
<g id="surface41" clip-path="url(#clip26)">
<path style=" stroke:none;fill-rule:nonzero;fill:rgb(0%,0%,0%);fill-opacity:1;" d="M 37.164062 20.136719 C 37.164062 20.136719 35.753906 20.011719 35.414062 19.542969 C 35.414062 19.542969 35.710938 20.992188 37.164062 20.136719 "/>
</g>
<clipPath id="clip27">
  <path d="M 26.964844 22.109375 L 36.90625 22.109375 L 36.90625 23.894531 L 26.964844 23.894531 Z M 26.964844 22.109375 "/>
</clipPath>
<mask id="mask13">
  <g filter="url(#alpha)">
<rect x="0" y="0" width="64" height="64" style="fill:rgb(0%,0%,0%);fill-opacity:0.270588;stroke:none;"/>
  </g>
</mask>
<clipPath id="clip28">
  <rect x="0" y="0" width="64" height="64"/>
</clipPath>
<g id="surface44" clip-path="url(#clip28)">
<path style=" stroke:none;fill-rule:nonzero;fill:rgb(100%,100%,100%);fill-opacity:1;" d="M 26.964844 23.894531 C 26.964844 23.894531 31.617188 19.96875 36.90625 23.765625 C 36.90625 23.765625 32.128906 21.078125 26.964844 23.894531 "/>
</g>
<clipPath id="clip29">
  <path d="M 35.414062 18.476562 L 37.332031 18.476562 L 37.332031 19.242188 L 35.414062 19.242188 Z M 35.414062 18.476562 "/>
</clipPath>
<mask id="mask14">
  <g filter="url(#alpha)">
<rect x="0" y="0" width="64" height="64" style="fill:rgb(0%,0%,0%);fill-opacity:0.270588;stroke:none;"/>
  </g>
</mask>
<clipPath id="clip30">
  <rect x="0" y="0" width="64" height="64"/>
</clipPath>
<g id="surface47" clip-path="url(#clip30)">
<path style=" stroke:none;fill-rule:nonzero;fill:rgb(100%,100%,100%);fill-opacity:1;" d="M 37.332031 19.242188 C 37.332031 19.242188 36.445312 18.289062 35.414062 19.117188 C 35.414062 19.117188 36.300781 17.59375 37.332031 19.242188 "/>
</g>
<clipPath id="clip31">
  <path d="M 26.410156 18.476562 L 28.332031 18.476562 L 28.332031 19.242188 L 26.410156 19.242188 Z M 26.410156 18.476562 "/>
</clipPath>
<mask id="mask15">
  <g filter="url(#alpha)">
<rect x="0" y="0" width="64" height="64" style="fill:rgb(0%,0%,0%);fill-opacity:0.270588;stroke:none;"/>
  </g>
</mask>
<clipPath id="clip32">
  <rect x="0" y="0" width="64" height="64"/>
</clipPath>
<g id="surface50" clip-path="url(#clip32)">
<path style=" stroke:none;fill-rule:nonzero;fill:rgb(100%,100%,100%);fill-opacity:1;" d="M 26.410156 19.242188 C 26.410156 19.242188 27.296875 18.289062 28.332031 19.117188 C 28.332031 19.117188 27.445312 17.59375 26.410156 19.242188 "/>
</g>
<clipPath id="clip33">
  <path d="M 38.953125 34.679688 L 41.558594 34.679688 L 41.558594 36.011719 L 38.953125 36.011719 Z M 38.953125 34.679688 "/>
</clipPath>
<mask id="mask16">
  <g filter="url(#alpha)">
<rect x="0" y="0" width="64" height="64" style="fill:rgb(0%,0%,0%);fill-opacity:0.270588;stroke:none;"/>
  </g>
</mask>
<clipPath id="clip34">
  <rect x="0" y="0" width="64" height="64"/>
</clipPath>
<g id="surface53" clip-path="url(#clip34)">
<path style=" stroke:none;fill-rule:nonzero;fill:rgb(100%,100%,100%);fill-opacity:1;" d="M 38.953125 34.816406 C 38.953125 34.816406 40.320312 34.476562 41.558594 36.011719 C 41.558594 36.011719 40.789062 34.175781 38.953125 34.816406 "/>
</g>
</defs>
<g id="surface1">
<path style="fill-rule:nonzero;fill:rgb(45.882353%,16.078431%,58.431373%);fill-opacity:1;stroke-width:3.823;stroke-linecap:butt;stroke-linejoin:miter;stroke:rgb(0%,0%,0%);stroke-opacity:1;stroke-miterlimit:10;" d="M 0.037332 -0.0300144 C 30.982157 23.041275 55.609843 10.49855 46.088359 69.824724 C 44.440409 75.684099 40.228983 93.903093 48.560282 114.319354 C 50.940654 119.995623 58.081767 133.27077 72.821758 144.531757 C 97.99876 163.666279 126.10545 159.454853 145.697736 132.26369 C 156.592512 117.065936 149.726056 92.896013 133.246564 83.466081 C 126.74632 79.620866 114.478253 81.08571 109.625958 86.670427 C 106.513165 90.332537 106.604717 93.903093 112.280987 94.910174 C 116.034649 95.551043 119.879864 95.734148 123.633526 96.191912 C 135.993146 97.382097 141.028546 108.368426 135.169171 119.629412 C 127.478741 134.186298 115.943097 140.869647 99.646709 138.580829 C 88.019512 137.024432 79.138896 129.334002 73.55418 120.270282 C 61.286113 100.403338 59.638164 78.979997 67.87791 56.64113 C 75.202129 36.865738 46.637675 -13.305161 47.003886 -16.967271 " transform="matrix(0.0426667,0,0,-0.0426667,35.228876,41.252626)"/>
<path style=" stroke:none;fill-rule:nonzero;fill:rgb(45.882353%,16.078431%,58.431373%);fill-opacity:1;" d="M 34.992188 41.210938 C 35.328125 41.15625 36.148438 41 36.777344 41.394531 C 36.890625 41.464844 37.171875 41.644531 37.324219 42.007812 C 37.40625 42.195312 37.4375 42.410156 37.414062 42.648438 C 37.402344 42.6875 37.382812 42.757812 37.355469 42.839844 C 37.355469 42.839844 37.066406 43.699219 36.425781 44.085938 C 36.425781 44.085938 36.359375 44.125 36.183594 44.144531 C 36.183594 44.144531 36.175781 44.148438 36.175781 44.144531 C 36.171875 44.136719 36.1875 44.121094 36.191406 44.121094 C 36.195312 44.125 36.1875 44.140625 36.183594 44.144531 C 36.167969 44.191406 36.15625 44.339844 36.164062 44.394531 C 36.179688 44.5625 36.496094 44.679688 36.59375 44.71875 C 36.804688 44.796875 37.03125 44.808594 37.089844 44.800781 C 37.09375 44.800781 37.125 44.792969 37.164062 44.796875 C 37.164062 44.796875 37.203125 44.804688 37.230469 44.816406 C 37.296875 44.847656 37.339844 45.25 37.164062 45.449219 C 36.820312 45.847656 35.695312 45.386719 35.125 45.042969 C 34.722656 44.800781 34.671875 44.664062 34.65625 44.59375 C 34.558594 44.148438 35.242188 43.628906 35.097656 43.445312 C 35.082031 43.425781 35.0625 43.417969 35.042969 43.410156 C 34.714844 43.289062 33.347656 44.296875 32.105469 43.574219 C 32.09375 43.566406 32.074219 43.570312 32.054688 43.574219 C 30.667969 43.984375 30.097656 43.738281 28.953125 43.410156 C 28.925781 43.402344 28.910156 43.429688 28.898438 43.445312 C 28.757812 43.625 29.4375 44.148438 29.339844 44.59375 C 29.324219 44.664062 29.273438 44.800781 28.871094 45.042969 C 28.300781 45.386719 27.179688 45.847656 26.832031 45.449219 C 26.660156 45.25 26.703125 44.847656 26.765625 44.816406 C 26.796875 44.804688 26.832031 44.796875 26.832031 44.796875 C 26.871094 44.792969 26.902344 44.800781 26.910156 44.800781 C 26.964844 44.808594 27.191406 44.796875 27.40625 44.71875 C 27.5 44.679688 27.816406 44.5625 27.835938 44.394531 C 27.839844 44.339844 27.828125 44.191406 27.8125 44.144531 C 27.808594 44.140625 27.804688 44.125 27.804688 44.121094 C 27.808594 44.121094 27.828125 44.136719 27.824219 44.144531 C 27.824219 44.144531 27.820312 44.148438 27.8125 44.144531 C 27.792969 44.144531 26.527344 43.609375 26.558594 42.519531 C 26.5625 42.410156 26.574219 42.015625 26.847656 41.710938 C 27.074219 41.453125 27.453125 41.359375 28.199219 41.183594 C 28.429688 41.128906 28.644531 40.976562 28.871094 41.046875 C 30.75 41.617188 32.675781 41.582031 34.992188 41.210938 "/>
<path style="fill:none;stroke-width:3.823;stroke-linecap:butt;stroke-linejoin:miter;stroke:rgb(0%,0%,0%);stroke-opacity:1;stroke-miterlimit:10;" d="M 0.044415 -0.0356343 C 7.91795 1.246104 27.144025 4.908213 41.884016 -4.338613 C 44.539045 -5.986562 51.130842 -10.197988 54.701399 -18.712393 C 56.624006 -23.106924 57.356428 -28.142324 56.807112 -33.727041 C 56.532454 -34.642569 56.07469 -36.290518 55.433821 -38.213125 C 55.433821 -38.213125 48.658918 -58.354728 33.644269 -67.418448 C 33.644269 -67.418448 32.087873 -68.333976 27.968 -68.79174 C 27.968 -68.79174 27.784894 -68.883292 27.784894 -68.79174 C 27.693342 -68.608634 28.059552 -68.242423 28.151105 -68.242423 C 28.242658 -68.333976 28.059552 -68.700187 27.968 -68.79174 C 27.601789 -69.890372 27.327131 -73.369376 27.510236 -74.651115 C 27.876447 -78.587882 35.292219 -81.334464 37.581037 -82.249992 C 42.524885 -84.081047 47.834944 -84.355705 49.208235 -84.172599 C 49.299787 -84.172599 50.032209 -83.989494 50.947737 -84.081047 C 50.947737 -84.081047 51.863264 -84.264152 52.504133 -84.53881 C 54.06053 -85.271232 55.06761 -94.701164 50.947737 -99.370354 C 42.891096 -108.708733 16.523908 -97.90551 3.157208 -89.848869 C -6.272724 -84.172599 -7.462909 -80.968254 -7.82912 -79.320304 C -10.117939 -68.883292 5.90379 -56.706778 2.516339 -52.4038 C 2.150128 -51.946036 1.692364 -51.762931 1.234601 -51.579825 C -6.455829 -48.74169 -38.499287 -72.362296 -67.613057 -55.42504 C -67.887716 -55.241935 -68.345479 -55.333487 -68.803243 -55.42504 C -101.304464 -65.038077 -114.671164 -59.270255 -141.496116 -51.579825 C -142.136985 -51.39672 -142.503196 -52.037589 -142.777854 -52.4038 C -146.073753 -56.615226 -130.143577 -68.883292 -132.432395 -79.320304 C -132.798606 -80.968254 -133.988791 -84.172599 -143.418723 -89.848869 C -156.785423 -97.90551 -183.061058 -108.708733 -191.209252 -99.370354 C -195.237572 -94.701164 -194.230492 -85.271232 -192.765648 -84.53881 C -192.033226 -84.264152 -191.209252 -84.081047 -191.209252 -84.081047 C -190.293724 -83.989494 -189.561303 -84.172599 -189.378197 -84.172599 C -188.096459 -84.355705 -182.7864 -84.081047 -177.751 -82.249992 C -175.553734 -81.334464 -168.137962 -78.587882 -167.680199 -74.651115 C -167.588646 -73.369376 -167.863304 -69.890372 -168.229515 -68.79174 C -168.321068 -68.700187 -168.41262 -68.333976 -168.41262 -68.242423 C -168.321068 -68.242423 -167.863304 -68.608634 -167.954857 -68.79174 C -167.954857 -68.79174 -168.046409 -68.883292 -168.229515 -68.79174 C -168.687279 -68.79174 -198.350365 -56.249015 -197.617943 -30.705801 C -197.526391 -28.142324 -197.251732 -18.895498 -190.843041 -11.754385 C -185.532982 -5.711904 -176.652367 -3.514638 -159.165794 0.605235 C -153.764183 1.886973 -148.728782 5.45753 -143.418723 3.809581 C -99.381857 -9.557119 -54.246358 -8.733144 0.044415 -0.0356343 Z M 0.044415 -0.0356343 " transform="matrix(0.0426667,0,0,-0.0426667,34.990292,41.209417)"/>
<path style=" stroke:none;fill-rule:nonzero;fill:rgb(100%,77.647059%,100%);fill-opacity:1;" d="M 32.328125 41.464844 L 31.6875 41.464844 C 31.53125 41.464844 31.34375 41.390625 31.253906 41.261719 C 30.867188 40.707031 30.023438 39.625 30.023438 39.203125 L 30.320312 37.070312 C 30.535156 36.644531 30.605469 36.132812 31.089844 36.132812 L 32.882812 36.261719 C 33.367188 36.261719 33.648438 37.054688 33.648438 37.539062 L 33.992188 39.121094 C 33.992188 39.550781 32.910156 40.847656 32.625 41.339844 C 32.574219 41.425781 32.429688 41.464844 32.328125 41.464844 "/>
<path style=" stroke:none;fill-rule:nonzero;fill:rgb(45.882353%,16.078431%,58.431373%);fill-opacity:1;" d="M 21.878906 24.652344 C 22.019531 24.375 22.070312 24.078125 22.257812 23.820312 C 22.558594 23.414062 23.007812 23.121094 23.167969 22.609375 C 23.246094 22.355469 23.175781 22 22.914062 21.945312 C 22.335938 21.820312 21.71875 21.835938 21.210938 22.117188 C 20.574219 22.46875 20.285156 23.15625 20.183594 23.835938 C 20.089844 24.460938 20.109375 25.105469 20.308594 25.753906 C 20.636719 26.8125 21.175781 27.6875 22.078125 28.328125 C 22.347656 28.515625 22.648438 28.714844 22.957031 28.765625 C 23.40625 28.835938 23.878906 28.796875 24.339844 28.769531 C 24.558594 28.757812 24.785156 28.738281 24.992188 28.59375 C 25.136719 28.492188 25.203125 28.40625 25.175781 28.242188 C 25.144531 28.039062 24.980469 28.074219 24.859375 28.085938 C 24.457031 28.128906 24.09375 28.019531 23.726562 27.878906 C 23.042969 27.613281 22.710938 26.761719 23.15625 26.3125 C 23.425781 26.042969 23.628906 25.730469 23.882812 25.453125 C 24.054688 25.269531 24.257812 24.980469 24.191406 24.699219 C 24.101562 24.296875 23.351562 23.863281 22.921875 24.066406 C 22.5625 24.238281 22.230469 24.441406 21.878906 24.652344 M 40.285156 28.714844 C 40.910156 28.667969 41.503906 28.558594 42.058594 28.191406 C 42.875 27.648438 43.441406 26.894531 43.746094 26.023438 C 44.027344 25.21875 44.199219 24.378906 43.914062 23.449219 C 43.550781 22.253906 42.789062 21.8125 41.753906 21.730469 C 41.441406 21.707031 41.109375 21.757812 40.996094 22.058594 C 40.882812 22.359375 40.964844 22.683594 41.238281 22.9375 C 41.589844 23.269531 41.90625 23.640625 42.152344 24.058594 C 42.21875 24.171875 42.339844 24.351562 42.1875 24.464844 C 42.046875 24.570312 41.996094 24.375 41.917969 24.296875 C 41.542969 23.921875 41.085938 23.863281 40.605469 23.984375 C 40.058594 24.128906 39.804688 24.671875 40.089844 25.070312 C 40.378906 25.464844 40.699219 25.839844 41.015625 26.210938 C 41.269531 26.507812 41.304688 27.050781 41.042969 27.34375 C 40.605469 27.847656 40.007812 27.910156 39.386719 27.929688 C 39.269531 27.933594 39.046875 27.753906 39.011719 28.054688 C 38.984375 28.289062 39.015625 28.453125 39.300781 28.535156 C 39.625 28.632812 39.9375 28.75 40.285156 28.714844 M 28.253906 40.796875 C 27.882812 40.59375 27.621094 40.449219 27.46875 40.15625 C 27.195312 39.628906 27.433594 38.996094 27.714844 38.425781 C 28.007812 37.832031 28.390625 37.246094 28.945312 36.824219 C 29.242188 36.597656 29.535156 36.34375 29.933594 36.335938 C 30.199219 36.328125 30.3125 36.132812 30.328125 35.957031 C 30.355469 35.71875 30.113281 35.734375 29.941406 35.722656 C 29.101562 35.667969 28.28125 35.472656 27.484375 35.230469 C 26.613281 34.960938 25.761719 34.597656 25.054688 33.996094 C 24.574219 33.585938 24.234375 33.054688 24.085938 32.429688 C 23.945312 31.835938 24.203125 31.332031 24.496094 30.839844 C 24.738281 30.433594 24.949219 30.011719 24.914062 29.515625 C 24.898438 29.347656 24.941406 29.234375 24.648438 29.328125 C 23.765625 29.605469 22.878906 29.574219 21.992188 29.257812 C 21.480469 29.074219 20.976562 28.90625 20.554688 28.554688 C 19.773438 27.902344 19.226562 27.121094 19.015625 26.101562 C 18.925781 25.664062 18.824219 25.238281 18.855469 24.785156 C 18.917969 23.847656 19.113281 22.964844 19.722656 22.207031 C 20.046875 21.800781 20.507812 21.609375 20.945312 21.414062 C 21.636719 21.105469 22.378906 20.898438 23.144531 21.070312 C 24.15625 21.296875 25.015625 21.785156 25.621094 22.65625 C 25.902344 23.058594 26.070312 23.511719 26.242188 23.960938 C 26.328125 24.191406 26.414062 24.230469 26.601562 24.058594 C 27.101562 23.609375 27.660156 23.246094 28.28125 22.992188 C 28.519531 22.898438 28.523438 22.773438 28.445312 22.589844 C 28.222656 22.042969 28.003906 21.492188 27.886719 20.914062 C 27.816406 20.574219 27.679688 20.390625 27.296875 20.394531 C 26.824219 20.402344 26.523438 20.144531 26.371094 19.640625 C 26.265625 19.285156 26.425781 18.953125 26.664062 18.722656 C 26.949219 18.449219 27.324219 18.300781 27.738281 18.460938 C 28.449219 18.730469 28.664062 19.398438 28.214844 20.015625 C 28.019531 20.285156 28.003906 20.472656 28.171875 20.769531 C 28.472656 21.320312 28.792969 21.855469 29.09375 22.402344 C 29.210938 22.617188 29.347656 22.582031 29.496094 22.515625 C 30.589844 22.042969 31.746094 21.925781 32.898438 22.097656 C 33.410156 22.175781 33.976562 22.199219 34.441406 22.507812 C 34.5625 22.585938 34.625 22.503906 34.683594 22.390625 C 34.90625 21.964844 35.140625 21.546875 35.367188 21.125 C 35.445312 20.984375 35.503906 20.835938 35.609375 20.707031 C 35.78125 20.496094 35.785156 20.277344 35.566406 20.058594 C 35.265625 19.761719 35.257812 19.09375 35.523438 18.785156 C 35.847656 18.40625 36.5625 18.308594 36.925781 18.589844 C 37.34375 18.914062 37.46875 19.296875 37.324219 19.804688 C 37.210938 20.191406 36.90625 20.375 36.332031 20.402344 C 36.210938 20.40625 36.089844 20.382812 36.035156 20.542969 C 35.808594 21.230469 35.574219 21.910156 35.34375 22.59375 C 35.292969 22.742188 35.316406 22.867188 35.480469 22.921875 C 36.230469 23.167969 36.882812 23.5625 37.445312 24.117188 C 37.605469 24.277344 37.65625 24.117188 37.722656 23.988281 C 37.9375 23.589844 38.066406 23.15625 38.328125 22.773438 C 38.816406 22.050781 39.449219 21.554688 40.265625 21.246094 C 40.882812 21.019531 41.492188 20.972656 42.132812 21.058594 C 43.34375 21.226562 44.628906 22.25 44.902344 23.253906 C 45.09375 23.964844 45.207031 24.6875 45.121094 25.414062 C 44.941406 26.910156 44.332031 28.136719 42.933594 28.894531 C 41.9375 29.433594 40.890625 29.523438 39.800781 29.441406 C 39.691406 29.433594 39.589844 29.378906 39.480469 29.375 C 39.339844 29.367188 39.246094 29.09375 39.105469 29.269531 C 38.996094 29.402344 39.027344 29.621094 39.085938 29.78125 C 39.296875 30.355469 39.496094 30.929688 39.839844 31.464844 C 40.070312 31.824219 40 32.320312 39.832031 32.726562 C 39.433594 33.699219 38.675781 34.304688 37.738281 34.738281 C 37.085938 35.042969 36.410156 35.230469 35.726562 35.421875 C 35.132812 35.589844 34.535156 35.632812 33.9375 35.722656 C 33.765625 35.75 33.558594 35.828125 33.597656 35.964844 C 33.636719 36.101562 33.703125 36.3125 33.964844 36.335938 C 34.605469 36.398438 35.046875 36.796875 35.417969 37.289062 C 35.824219 37.824219 36.289062 38.316406 36.417969 39.007812 C 36.429688 39.0625 36.441406 39.113281 36.453125 39.167969 C 36.457031 39.199219 36.558594 39.796875 36.378906 40.191406 C 36.332031 40.304688 36.242188 40.4375 35.578125 40.824219 C 34.582031 41.40625 34.28125 41.390625 34.113281 41.75 C 33.945312 42.109375 34.09375 42.253906 33.960938 42.589844 C 33.734375 43.167969 33.042969 43.339844 32.6875 42.828125 C 32.632812 42.753906 32.558594 42.671875 32.515625 42.480469 C 32.316406 41.554688 33.039062 40.609375 33.292969 40.285156 C 33.667969 39.804688 33.695312 39.945312 33.835938 39.679688 C 34.179688 39.03125 33.902344 38.304688 33.34375 36.851562 C 33.285156 36.699219 33.171875 36.417969 32.910156 36.308594 C 32.785156 36.257812 32.738281 36.289062 32.425781 36.296875 C 31.996094 36.308594 31.289062 36.265625 31.097656 36.132812 C 31.085938 36.125 31.046875 36.09375 31 36.105469 C 30.921875 36.121094 30.886719 36.25 30.875 36.285156 C 30.800781 36.550781 30.621094 36.613281 30.375 37.300781 C 30.09375 38.074219 29.828125 38.808594 30.097656 39.59375 C 30.152344 39.753906 30.210938 39.863281 30.332031 40.082031 C 30.804688 40.929688 31.140625 40.964844 31.351562 41.519531 C 31.550781 42.035156 31.445312 42.558594 31.28125 42.800781 C 31.222656 42.886719 31.144531 43.136719 30.710938 43.128906 C 30.253906 43.121094 30.148438 42.933594 30.058594 42.882812 C 29.714844 42.699219 30.164062 41.898438 29.808594 41.414062 C 29.527344 41.035156 29.125 41.273438 28.253906 40.796875 "/>
<path style="fill:none;stroke-width:3.823;stroke-linecap:butt;stroke-linejoin:miter;stroke:rgb(0%,0%,0%);stroke-opacity:1;stroke-miterlimit:10;" d="M -0.0222219 0.0344164 C 3.273677 6.534661 4.463862 13.492669 8.858394 19.535149 C 15.907954 29.056634 26.436519 35.923089 30.190181 47.916498 C 32.021236 53.867426 30.373287 62.198725 24.239253 63.480463 C 10.689448 66.41015 -3.775884 66.04394 -15.67774 59.452143 C -30.600836 51.212396 -37.375739 35.099115 -39.75611 19.168938 C -41.953375 4.520501 -41.495612 -10.585701 -36.826422 -25.783455 C -29.135992 -50.594247 -16.501715 -71.10206 4.646968 -86.116709 C 10.964106 -90.51124 18.013667 -95.18043 25.246333 -96.370615 C 35.774898 -98.018565 46.852779 -97.103037 57.656002 -96.462168 C 62.782955 -96.18751 68.093014 -95.729746 72.945309 -92.342295 C 76.33276 -89.961924 77.889157 -87.947764 77.248288 -84.102549 C 76.515866 -79.341806 72.670651 -80.165781 69.832516 -80.440439 C 60.402584 -81.447519 51.88818 -78.884043 43.282222 -75.588144 C 27.260494 -69.362558 19.478511 -49.404061 29.915523 -38.875497 C 36.232662 -32.558358 40.993404 -25.234139 46.944332 -18.733895 C 50.972652 -14.430916 55.733395 -7.656013 54.176998 -1.064216 C 52.071285 8.365715 34.49316 18.528069 24.422359 13.767327 C 15.999507 9.739007 8.217524 4.978264 -0.0222219 0.0344164 Z M 431.374273 -95.18043 C 446.022711 -94.081797 459.938727 -91.51832 472.939216 -82.912363 C 492.073738 -70.186533 505.348884 -52.516854 512.489998 -32.100594 C 519.081795 -13.24073 523.110115 6.443108 516.426766 28.232659 C 507.912361 56.247797 490.059577 66.593256 465.798102 68.515863 C 458.473883 69.06518 450.691901 67.874994 448.036871 60.825434 C 445.381842 53.775873 447.304449 46.176996 453.713141 40.226068 C 461.952887 32.444085 469.368659 23.746575 475.136481 13.950432 C 476.692878 11.295403 479.531013 7.083977 475.960456 4.428948 C 472.664557 1.957024 471.474372 6.534661 469.643317 8.365715 C 460.854254 17.154778 450.142584 18.528069 438.881598 15.689934 C 426.064214 12.302483 420.113287 -0.423347 426.796636 -9.761726 C 433.571539 -19.008553 441.078863 -27.797616 448.494635 -36.495126 C 454.445563 -43.453134 455.269537 -56.178964 449.135504 -63.045419 C 438.881598 -74.855722 424.874029 -76.320566 410.317144 -76.77833 C 407.570562 -76.869882 402.352056 -72.658456 401.528081 -79.708017 C 400.887212 -85.201181 401.619634 -89.046396 408.302984 -90.969004 C 415.901861 -93.257822 423.22608 -96.004404 431.374273 -95.18043 Z M 149.391844 -378.353044 C 140.694334 -373.592302 134.560301 -370.204851 130.989744 -363.338395 C 124.581053 -350.978776 130.16577 -336.147233 136.757567 -322.780533 C 143.624022 -308.864517 152.59619 -295.131607 165.596679 -285.243911 C 172.554687 -279.933852 179.421142 -273.982924 188.759521 -273.799819 C 194.985107 -273.616713 197.640137 -269.039077 198.006347 -264.919203 C 198.647217 -259.334487 192.970947 -259.700698 188.942627 -259.426039 C 169.258788 -258.144301 150.032713 -253.566664 131.355955 -247.890394 C 110.939695 -241.573256 90.981198 -233.058851 74.410153 -218.95973 C 63.149166 -209.346692 55.184078 -196.89552 51.705074 -182.247082 C 48.409176 -168.331066 54.451656 -156.520763 61.318112 -144.985118 C 66.994381 -135.463634 71.938229 -125.575938 71.114254 -113.948741 C 70.748043 -110.011973 71.755124 -107.356944 64.888668 -109.554209 C 44.19775 -116.054454 23.415279 -115.322032 2.632807 -107.90626 C -9.360601 -103.603281 -21.170904 -99.666514 -31.0586 -91.426768 C -49.369147 -76.13746 -62.18653 -57.826913 -67.130378 -33.931649 C -69.236091 -23.677742 -71.616462 -13.698494 -70.88404 -3.078377 C -69.419196 18.89428 -64.84156 39.585199 -50.559333 57.34643 C -42.960455 66.867914 -32.157233 71.353998 -21.903326 75.931635 C -5.698492 83.164301 11.696528 88.016596 29.640865 83.988276 C 53.353024 78.678217 73.494626 67.234125 87.6853 46.817865 C 94.277097 37.387933 98.213864 26.767816 102.242185 16.239251 C 104.256345 10.837639 106.270505 9.922112 110.665037 13.950432 C 122.383787 24.478997 135.475828 32.993402 150.032713 38.944329 C 155.61743 41.141595 155.708983 44.071283 153.877928 48.374261 C 148.659422 61.191645 143.532469 74.10058 140.785887 87.650385 C 139.137938 95.615473 135.933592 99.918452 126.961424 99.826899 C 115.883543 99.643794 108.833982 105.686275 105.263425 117.496578 C 102.791501 125.827877 106.545164 133.609859 112.12988 139.011471 C 118.81323 145.420162 127.602293 148.899166 137.306883 145.145504 C 153.969481 138.828365 159.004882 123.172847 148.476317 108.707515 C 143.89868 102.390376 143.532469 97.995845 147.469237 91.037837 C 154.518798 78.128901 162.026122 65.586176 169.075683 52.768793 C 171.822265 47.733392 175.026611 48.557367 178.505615 50.113763 C 204.140381 61.191645 231.239991 63.938227 258.248048 59.909906 C 270.241457 58.078851 283.516604 57.529535 294.411379 50.296869 C 297.249514 48.465814 298.714358 50.388422 300.087649 53.043451 C 305.306155 63.022699 310.799319 72.818842 316.109378 82.706538 C 317.940432 86.002436 319.313724 89.48144 321.785647 92.50268 C 325.813968 97.446528 325.905521 102.573481 320.778567 107.700435 C 313.729007 114.658443 313.545901 130.313961 319.771487 137.546627 C 327.370364 146.427242 344.124515 148.716061 352.63892 142.124264 C 362.435063 134.525387 365.36475 125.553218 361.977299 113.651363 C 359.322269 104.587642 352.181156 100.284663 338.722904 99.643794 C 335.884769 99.552241 333.046634 100.101558 331.764896 96.347895 C 326.454837 80.234614 320.961673 64.304438 315.560061 48.282709 C 314.369876 44.803705 314.919192 41.874017 318.764407 40.592279 C 336.342533 34.824456 351.63184 25.57763 364.815434 12.577141 C 368.569096 8.823479 369.759281 12.577141 371.315678 15.598382 C 376.351078 24.936761 379.372319 35.099115 385.506352 44.071283 C 396.950444 61.008539 411.781988 72.635737 430.91651 79.868403 C 445.381842 85.178462 459.664069 86.277094 474.678718 84.262934 C 503.060066 80.326166 533.180916 56.339349 539.589608 32.810296 C 544.075692 16.147698 546.730721 -0.789558 544.716561 -17.818367 C 540.505135 -52.883065 526.222908 -81.630625 493.447029 -99.391856 C 470.101081 -112.026133 445.564947 -114.131846 420.021734 -112.209239 C 417.458257 -112.026133 415.077886 -110.744395 412.514409 -110.652842 C 409.218511 -110.469737 407.021245 -104.061045 403.725347 -108.180918 C 401.16187 -111.293711 401.894292 -116.420665 403.267583 -120.174327 C 408.211431 -133.632579 412.88062 -147.090831 420.937261 -159.633556 C 426.338873 -168.056408 424.690923 -179.683606 420.754156 -189.20509 C 411.415777 -212.001722 393.654546 -226.192396 371.681889 -236.35475 C 356.392582 -243.495863 340.553958 -247.890394 324.53223 -252.376479 C 310.616214 -256.313246 296.608645 -257.320326 282.601076 -259.426039 C 278.572756 -260.066908 273.720461 -261.897963 274.635988 -265.102309 C 275.551515 -268.306655 277.107912 -273.250503 283.241945 -273.799819 C 298.256594 -275.264663 308.602053 -284.603042 317.299563 -296.138687 C 326.821048 -308.681412 337.715824 -320.217056 340.737064 -336.421891 C 341.011722 -337.703629 341.28638 -338.893815 341.561039 -340.175553 C 341.652591 -340.907975 344.032962 -354.915544 339.821537 -364.16237 C 338.722904 -366.817399 336.617191 -369.930192 321.053226 -378.993913 C 297.707278 -392.635271 290.657717 -392.26906 286.720949 -400.691912 C 282.784182 -409.114764 286.263186 -412.502215 283.150393 -420.37575 C 277.840334 -433.925555 261.635499 -437.953876 253.3042 -425.960467 C 252.022462 -424.220965 250.28296 -422.298358 249.27588 -417.812274 C 244.60669 -396.114275 261.543947 -373.958513 267.494875 -366.359636 C 276.283937 -355.098649 276.924806 -358.394548 280.220705 -352.168962 C 288.277346 -336.971207 281.777102 -319.942398 268.68506 -285.88478 C 267.311769 -282.314223 264.65674 -275.722426 258.522706 -273.15895 C 255.593019 -271.968764 254.494386 -272.701186 247.170167 -272.884292 C 237.099366 -273.15895 220.528321 -272.15187 216.042237 -269.039077 C 215.767578 -268.855971 214.852051 -268.123549 213.753418 -268.398207 C 211.922363 -268.764418 211.098389 -271.785659 210.823731 -272.609633 C 209.084229 -278.835219 204.872803 -280.300063 199.10498 -296.413345 C 192.513183 -314.540787 186.287597 -331.752701 192.604736 -350.154801 C 193.886474 -353.908464 195.259765 -356.47194 198.0979 -361.598893 C 209.175781 -381.465837 217.049317 -382.289812 221.993164 -395.2903 C 226.662354 -407.375262 224.19043 -419.643328 220.345215 -425.319598 C 218.971924 -427.333758 217.140869 -433.193133 206.978516 -433.010028 C 196.266845 -432.826923 193.794922 -428.432391 191.689209 -427.242206 C 183.632568 -422.939227 194.161133 -404.170916 185.829833 -392.818377 C 179.238036 -383.937761 169.808105 -389.522478 149.391844 -378.353044 Z M 149.391844 -378.353044 " transform="matrix(0.0426667,0,0,-0.0426667,21.879854,24.653812)"/>
<path style=" stroke:none;fill-rule:nonzero;fill:rgb(100%,77.647059%,100%);fill-opacity:1;" d="M 40.285156 28.714844 C 39.9375 28.75 39.625 28.632812 39.300781 28.535156 C 39.015625 28.453125 38.984375 28.289062 39.011719 28.054688 C 39.046875 27.753906 39.269531 27.933594 39.386719 27.929688 C 40.007812 27.910156 40.605469 27.847656 41.042969 27.34375 C 41.304688 27.050781 41.269531 26.507812 41.015625 26.210938 C 40.699219 25.839844 40.378906 25.464844 40.089844 25.070312 C 39.804688 24.671875 40.058594 24.128906 40.605469 23.984375 C 41.085938 23.863281 41.542969 23.921875 41.917969 24.296875 C 41.996094 24.375 42.046875 24.570312 42.1875 24.464844 C 42.339844 24.351562 42.21875 24.171875 42.152344 24.058594 C 41.90625 23.640625 41.589844 23.269531 41.238281 22.9375 C 40.964844 22.683594 40.882812 22.359375 40.996094 22.058594 C 41.109375 21.757812 41.441406 21.707031 41.753906 21.730469 C 42.789062 21.8125 43.550781 22.253906 43.914062 23.449219 C 44.199219 24.378906 44.027344 25.21875 43.746094 26.023438 C 43.441406 26.894531 42.875 27.648438 42.058594 28.191406 C 41.503906 28.558594 40.910156 28.667969 40.285156 28.714844 "/>
<path style=" stroke:none;fill-rule:nonzero;fill:rgb(100%,77.647059%,100%);fill-opacity:1;" d="M 21.878906 24.652344 C 22.230469 24.441406 22.5625 24.238281 22.921875 24.066406 C 23.351562 23.863281 24.101562 24.296875 24.191406 24.699219 C 24.257812 24.980469 24.054688 25.269531 23.882812 25.453125 C 23.628906 25.730469 23.425781 26.042969 23.15625 26.3125 C 22.710938 26.761719 23.042969 27.613281 23.726562 27.878906 C 24.09375 28.019531 24.457031 28.128906 24.859375 28.085938 C 24.980469 28.074219 25.144531 28.039062 25.175781 28.242188 C 25.203125 28.40625 25.136719 28.492188 24.992188 28.59375 C 24.785156 28.738281 24.558594 28.757812 24.339844 28.769531 C 23.878906 28.796875 23.40625 28.835938 22.957031 28.765625 C 22.648438 28.714844 22.347656 28.515625 22.078125 28.328125 C 21.175781 27.6875 20.636719 26.8125 20.308594 25.753906 C 20.109375 25.105469 20.089844 24.460938 20.183594 23.835938 C 20.285156 23.15625 20.574219 22.46875 21.210938 22.117188 C 21.71875 21.835938 22.335938 21.820312 22.914062 21.945312 C 23.175781 22 23.246094 22.355469 23.167969 22.609375 C 23.007812 23.121094 22.558594 23.414062 22.257812 23.820312 C 22.070312 24.078125 22.019531 24.375 21.878906 24.652344 "/>
<path style="fill:none;stroke-width:3.823;stroke-linecap:butt;stroke-linejoin:miter;stroke:rgb(0%,0%,0%);stroke-opacity:1;stroke-miterlimit:10;" d="M 0.0376446 0.0315595 C 0.0376446 -12.694271 -10.307815 -28.716 -22.942092 -28.716 C -35.57637 -28.716 -45.921829 -18.370541 -45.921829 -5.736263 " transform="matrix(0.0426667,0,0,-0.0426667,32.178081,32.442753)"/>
<path style="fill:none;stroke-width:3.823;stroke-linecap:butt;stroke-linejoin:miter;stroke:rgb(0%,0%,0%);stroke-opacity:1;stroke-miterlimit:10;" d="M 0.0236657 -0.000962903 C 0.0236657 -12.635241 -10.230241 -22.9807 -22.956071 -22.9807 C -35.590349 -22.9807 -45.844255 -6.958971 -45.844255 5.76686 " transform="matrix(0.0426667,0,0,-0.0426667,34.135709,32.687459)"/>
<path style=" stroke:none;fill-rule:nonzero;fill:rgb(0%,0%,0%);fill-opacity:1;" d="M 32.832031 32.117188 C 32.878906 32.269531 32.566406 32.605469 32.179688 32.605469 C 31.789062 32.605469 31.476562 32.269531 31.527344 32.117188 C 31.605469 31.859375 32.75 31.859375 32.832031 32.117188 "/>
<path style="fill:none;stroke-width:3.823;stroke-linecap:butt;stroke-linejoin:miter;stroke:rgb(0%,0%,0%);stroke-opacity:1;stroke-miterlimit:10;" d="M 0.0329517 -0.0160633 C 1.131584 -3.58662 -6.192634 -11.460155 -15.256355 -11.460155 C -24.411629 -11.460155 -31.735848 -3.58662 -30.545662 -0.0160633 C -28.714608 6.026417 -1.889656 6.026417 0.0329517 -0.0160633 Z M 0.0329517 -0.0160633 " transform="matrix(0.0426667,0,0,-0.0426667,32.830625,32.116502)"/>
<path style=" stroke:none;fill-rule:nonzero;fill:rgb(100%,100%,100%);fill-opacity:1;" d="M 32.136719 32.890625 C 32.136719 32.65625 32.21875 33.625 32.21875 34.277344 C 32.21875 34.433594 32.011719 34.523438 31.851562 34.523438 L 31.523438 34.523438 C 31.484375 34.523438 31.160156 34.605469 31.238281 33.707031 C 31.484375 33.707031 32.136719 33.21875 32.136719 32.890625 "/>
<path style="fill:none;stroke-width:3.823;stroke-linecap:butt;stroke-linejoin:miter;stroke:rgb(0%,0%,0%);stroke-opacity:1;stroke-miterlimit:10;" d="M -0.0134355 0.0175948 C -0.0134355 5.510759 1.909172 -17.19432 1.909172 -32.483627 C 1.909172 -36.145736 -2.943123 -38.251449 -6.696785 -38.251449 L -14.387215 -38.251449 C -15.302742 -38.251449 -22.90162 -40.174057 -21.070565 -19.116927 C -15.302742 -19.116927 -0.0134355 -7.672835 -0.0134355 0.0175948 Z M -0.0134355 0.0175948 " transform="matrix(0.0426667,0,0,-0.0426667,32.137292,32.891376)"/>
<path style=" stroke:none;fill-rule:nonzero;fill:rgb(100%,100%,100%);fill-opacity:1;" d="M 32.289062 32.890625 C 32.289062 32.65625 32.207031 33.625 32.207031 34.277344 C 32.207031 34.433594 32.414062 34.523438 32.570312 34.523438 L 32.898438 34.523438 C 32.953125 34.523438 33.265625 34.605469 33.183594 33.707031 C 32.941406 33.707031 32.289062 33.21875 32.289062 32.890625 "/>
<path style="fill:none;stroke-width:3.823;stroke-linecap:butt;stroke-linejoin:miter;stroke:rgb(0%,0%,0%);stroke-opacity:1;stroke-miterlimit:10;" d="M 0.0444213 0.0175948 C 0.0444213 5.510759 -1.878186 -17.19432 -1.878186 -32.483627 C -1.878186 -36.145736 2.974109 -38.251449 6.636218 -38.251449 L 14.326648 -38.251449 C 15.608386 -38.251449 22.932605 -40.174057 21.009998 -19.116927 C 15.333728 -19.116927 0.0444213 -7.672835 0.0444213 0.0175948 Z M 0.0444213 0.0175948 " transform="matrix(0.0426667,0,0,-0.0426667,32.287167,32.891376)"/>
<path style=" stroke:none;fill-rule:nonzero;fill:rgb(0%,0%,0%);fill-opacity:1;" d="M 26.347656 28.242188 C 26.304688 28.105469 26.3125 27.953125 26.351562 27.808594 C 26.390625 27.664062 26.464844 27.527344 26.558594 27.410156 C 26.746094 27.171875 27.007812 27.003906 27.285156 26.902344 C 27.558594 26.796875 27.863281 26.757812 28.15625 26.800781 C 28.304688 26.824219 28.453125 26.871094 28.578125 26.941406 C 28.636719 26.976562 28.695312 27.011719 28.753906 27.042969 L 28.796875 27.0625 L 28.804688 27.066406 C 28.804688 27.070312 28.804688 27.070312 28.804688 27.070312 C 28.804688 27.070312 28.804688 27.070312 28.800781 27.070312 C 28.800781 27.070312 28.800781 27.070312 28.796875 27.074219 C 28.789062 27.074219 28.78125 27.085938 28.777344 27.09375 C 28.773438 27.105469 28.777344 27.121094 28.785156 27.128906 C 28.785156 27.128906 28.789062 27.132812 28.789062 27.132812 C 28.796875 27.136719 28.792969 27.136719 28.792969 27.136719 C 28.796875 27.136719 28.796875 27.132812 28.796875 27.132812 C 28.796875 27.132812 28.792969 27.132812 28.792969 27.128906 C 28.789062 27.128906 28.792969 27.125 28.792969 27.121094 C 28.789062 27.117188 28.785156 27.125 28.785156 27.132812 C 28.785156 27.148438 28.789062 27.164062 28.792969 27.179688 C 28.78125 27.171875 28.765625 27.160156 28.753906 27.140625 C 28.75 27.132812 28.746094 27.121094 28.75 27.101562 C 28.75 27.09375 28.757812 27.082031 28.765625 27.078125 C 28.773438 27.074219 28.78125 27.070312 28.789062 27.070312 C 28.796875 27.066406 28.804688 27.066406 28.8125 27.066406 C 28.816406 27.066406 28.820312 27.066406 28.824219 27.070312 C 28.828125 27.070312 28.828125 27.070312 28.835938 27.074219 C 28.839844 27.078125 28.839844 27.078125 28.84375 27.082031 C 28.851562 27.089844 28.855469 27.109375 28.851562 27.117188 C 28.847656 27.128906 28.835938 27.140625 28.828125 27.144531 C 28.824219 27.144531 28.824219 27.144531 28.820312 27.144531 C 28.820312 27.144531 28.816406 27.148438 28.8125 27.148438 L 28.800781 27.148438 L 28.785156 27.152344 C 28.761719 27.152344 28.746094 27.152344 28.726562 27.152344 C 28.652344 27.152344 28.582031 27.140625 28.515625 27.132812 C 28.386719 27.113281 28.265625 27.113281 28.140625 27.121094 C 27.894531 27.140625 27.65625 27.199219 27.425781 27.28125 C 27.195312 27.367188 26.976562 27.480469 26.789062 27.632812 C 26.597656 27.78125 26.441406 27.972656 26.347656 28.242188 "/>
<path style=" stroke:none;fill-rule:nonzero;fill:rgb(0%,0%,0%);fill-opacity:1;" d="M 37.867188 28.324219 C 37.773438 28.054688 37.617188 27.863281 37.425781 27.714844 C 37.238281 27.5625 37.019531 27.449219 36.789062 27.363281 C 36.558594 27.28125 36.320312 27.222656 36.074219 27.203125 C 35.949219 27.195312 35.828125 27.195312 35.699219 27.214844 C 35.632812 27.222656 35.5625 27.230469 35.488281 27.234375 C 35.46875 27.234375 35.453125 27.234375 35.429688 27.234375 L 35.414062 27.230469 L 35.398438 27.230469 C 35.398438 27.226562 35.394531 27.226562 35.394531 27.226562 C 35.390625 27.226562 35.386719 27.226562 35.386719 27.222656 C 35.378906 27.222656 35.367188 27.210938 35.363281 27.199219 C 35.359375 27.191406 35.363281 27.171875 35.371094 27.164062 C 35.375 27.160156 35.375 27.160156 35.378906 27.15625 C 35.386719 27.152344 35.386719 27.152344 35.390625 27.152344 C 35.394531 27.148438 35.398438 27.148438 35.402344 27.148438 C 35.410156 27.148438 35.417969 27.148438 35.425781 27.148438 C 35.429688 27.152344 35.441406 27.15625 35.449219 27.160156 C 35.457031 27.164062 35.464844 27.175781 35.464844 27.183594 C 35.46875 27.203125 35.464844 27.214844 35.457031 27.222656 C 35.449219 27.238281 35.433594 27.25 35.421875 27.261719 C 35.425781 27.246094 35.429688 27.226562 35.429688 27.214844 C 35.429688 27.207031 35.425781 27.199219 35.421875 27.203125 C 35.421875 27.207031 35.425781 27.210938 35.421875 27.210938 C 35.421875 27.214844 35.417969 27.214844 35.417969 27.214844 C 35.417969 27.214844 35.417969 27.21875 35.417969 27.21875 C 35.421875 27.214844 35.417969 27.21875 35.425781 27.214844 C 35.425781 27.214844 35.429688 27.210938 35.429688 27.210938 C 35.4375 27.203125 35.441406 27.183594 35.4375 27.175781 C 35.433594 27.167969 35.421875 27.15625 35.417969 27.15625 C 35.414062 27.152344 35.414062 27.152344 35.414062 27.152344 C 35.410156 27.152344 35.410156 27.152344 35.410156 27.152344 C 35.410156 27.148438 35.410156 27.148438 35.410156 27.148438 L 35.417969 27.144531 L 35.460938 27.125 C 35.519531 27.089844 35.578125 27.058594 35.636719 27.023438 C 35.761719 26.953125 35.910156 26.90625 36.058594 26.882812 C 36.351562 26.839844 36.652344 26.878906 36.929688 26.980469 C 37.207031 27.085938 37.464844 27.253906 37.65625 27.492188 C 37.75 27.609375 37.824219 27.746094 37.863281 27.890625 C 37.902344 28.035156 37.90625 28.1875 37.867188 28.324219 "/>
<path style=" stroke:none;fill-rule:nonzero;fill:rgb(0%,0%,0%);fill-opacity:1;" d="M 30.625 32.808594 C 30.410156 32.796875 30.195312 32.808594 29.980469 32.84375 C 29.765625 32.878906 29.558594 32.941406 29.359375 33.027344 C 29.160156 33.113281 28.96875 33.226562 28.800781 33.359375 C 28.628906 33.496094 28.476562 33.65625 28.34375 33.828125 C 28.46875 33.652344 28.617188 33.488281 28.785156 33.34375 C 28.953125 33.203125 29.140625 33.082031 29.339844 32.988281 C 29.539062 32.894531 29.753906 32.828125 29.96875 32.785156 C 30.1875 32.738281 30.410156 32.722656 30.628906 32.726562 Z M 30.625 32.808594 "/>
<path style=" stroke:none;fill-rule:nonzero;fill:rgb(0%,0%,0%);fill-opacity:1;" d="M 30.707031 33.136719 C 30.492188 33.125 30.273438 33.132812 30.0625 33.171875 C 29.847656 33.203125 29.640625 33.265625 29.441406 33.351562 C 29.242188 33.4375 29.050781 33.550781 28.882812 33.6875 C 28.710938 33.824219 28.558594 33.980469 28.425781 34.15625 C 28.550781 33.976562 28.699219 33.8125 28.867188 33.671875 C 29.035156 33.527344 29.222656 33.410156 29.421875 33.316406 C 29.621094 33.222656 29.832031 33.152344 30.050781 33.109375 C 30.269531 33.066406 30.488281 33.050781 30.710938 33.054688 Z M 30.707031 33.136719 "/>
<path style=" stroke:none;fill-rule:nonzero;fill:rgb(0%,0%,0%);fill-opacity:1;" d="M 33.644531 32.726562 C 33.867188 32.722656 34.089844 32.738281 34.304688 32.785156 C 34.523438 32.824219 34.734375 32.894531 34.933594 32.988281 C 35.132812 33.082031 35.320312 33.203125 35.488281 33.34375 C 35.65625 33.488281 35.804688 33.652344 35.929688 33.828125 C 35.796875 33.65625 35.644531 33.496094 35.476562 33.359375 C 35.304688 33.226562 35.117188 33.113281 34.917969 33.027344 C 34.71875 32.941406 34.507812 32.878906 34.292969 32.84375 C 34.082031 32.808594 33.863281 32.796875 33.648438 32.808594 Z M 33.644531 32.726562 "/>
<path style=" stroke:none;fill-rule:nonzero;fill:rgb(0%,0%,0%);fill-opacity:1;" d="M 33.5625 33.054688 C 33.785156 33.050781 34.007812 33.066406 34.222656 33.109375 C 34.441406 33.152344 34.652344 33.222656 34.851562 33.316406 C 35.050781 33.410156 35.238281 33.527344 35.40625 33.671875 C 35.574219 33.8125 35.722656 33.976562 35.847656 34.15625 C 35.71875 33.980469 35.5625 33.824219 35.394531 33.6875 C 35.222656 33.550781 35.035156 33.4375 34.835938 33.351562 C 34.636719 33.265625 34.425781 33.203125 34.210938 33.171875 C 34 33.132812 33.78125 33.125 33.566406 33.136719 Z M 33.5625 33.054688 "/>
<path style=" stroke:none;fill-rule:nonzero;fill:rgb(0%,0%,0%);fill-opacity:1;" d="M 30.320312 29.925781 C 30.609375 30.890625 29.597656 31.324219 28.878906 31.535156 C 28.160156 31.75 27.46875 31.484375 27.183594 30.519531 C 26.898438 29.554688 27.378906 28.320312 28.105469 28.132812 C 29.386719 27.804688 30.035156 28.960938 30.320312 29.925781 "/>
<path style="fill:none;stroke-width:0.497;stroke-linecap:butt;stroke-linejoin:miter;stroke:rgb(0%,0%,0%);stroke-opacity:1;stroke-miterlimit:10;" d="M -0.021458 -0.0250781 C 6.753444 -22.638604 -16.958714 -32.800958 -33.804418 -37.744806 C -50.650121 -42.780206 -66.854956 -36.55462 -73.538306 -13.941094 C -80.221655 8.672432 -68.960669 37.603097 -51.93186 41.997628 C -21.902562 49.688058 -6.704808 22.588448 -0.021458 -0.0250781 Z M -0.021458 -0.0250781 " transform="matrix(0.0426667,0,0,-0.0426667,30.321228,29.924711)"/>
<path style=" stroke:none;fill-rule:nonzero;fill:rgb(100%,100%,100%);fill-opacity:1;" d="M 29.589844 29.054688 C 29.710938 29.261719 29.703125 29.492188 29.574219 29.566406 C 29.445312 29.640625 29.242188 29.53125 29.125 29.324219 C 29.003906 29.117188 29.011719 28.886719 29.140625 28.8125 C 29.269531 28.738281 29.46875 28.84375 29.589844 29.054688 "/>
<path style="fill:none;stroke-width:0.487;stroke-linecap:butt;stroke-linejoin:miter;stroke:rgb(0%,0%,0%);stroke-opacity:1;stroke-miterlimit:10;" d="M -0.0266198 -0.0151178 C 2.811515 -4.867413 2.62841 -10.269024 -0.392831 -12.008526 C -3.414071 -13.748028 -8.174813 -11.184552 -10.921395 -6.332257 C -13.75953 -1.479962 -13.576425 3.92165 -10.555184 5.661152 C -7.533944 7.400654 -2.864755 4.92873 -0.0266198 -0.0151178 Z M -0.0266198 -0.0151178 " transform="matrix(0.0426667,0,0,-0.0426667,29.59098,29.054042)"/>
<path style=" stroke:none;fill-rule:nonzero;fill:rgb(0%,0%,0%);fill-opacity:1;" d="M 33.945312 29.925781 C 33.652344 30.910156 34.679688 31.347656 35.410156 31.566406 C 36.140625 31.785156 36.847656 31.511719 37.136719 30.53125 C 37.429688 29.546875 36.9375 28.292969 36.199219 28.105469 C 34.894531 27.769531 34.234375 28.945312 33.945312 29.925781 "/>
<path style="fill:none;stroke-width:0.506;stroke-linecap:butt;stroke-linejoin:miter;stroke:rgb(0%,0%,0%);stroke-opacity:1;stroke-miterlimit:10;" d="M 0.0375816 0.0100219 C -6.828874 -23.061268 17.249496 -33.315174 34.369858 -38.442127 C 51.49022 -43.569081 68.061265 -37.160389 74.836167 -14.180652 C 81.702623 8.890637 70.166978 38.279066 52.863511 42.673597 C 22.284897 50.547133 6.812484 22.989759 0.0375816 0.0100219 Z M 0.0375816 0.0100219 " transform="matrix(0.0426667,0,0,-0.0426667,33.943709,29.926209)"/>
<path style=" stroke:none;fill-rule:nonzero;fill:rgb(100%,100%,100%);fill-opacity:1;" d="M 34.46875 29.054688 C 34.347656 29.261719 34.355469 29.492188 34.484375 29.566406 C 34.613281 29.640625 34.8125 29.53125 34.933594 29.324219 C 35.054688 29.117188 35.046875 28.886719 34.917969 28.8125 C 34.789062 28.738281 34.585938 28.84375 34.46875 29.054688 "/>
<path style="fill:none;stroke-width:0.487;stroke-linecap:butt;stroke-linejoin:miter;stroke:rgb(0%,0%,0%);stroke-opacity:1;stroke-miterlimit:10;" d="M 0.0371483 -0.0151178 C -2.800987 -4.867413 -2.617881 -10.269024 0.403359 -12.008526 C 3.4246 -13.748028 8.093789 -11.184552 10.931924 -6.332257 C 13.770059 -1.479962 13.586953 3.92165 10.565713 5.661152 C 7.544473 7.400654 2.78373 4.92873 0.0371483 -0.0151178 Z M 0.0371483 -0.0151178 " transform="matrix(0.0426667,0,0,-0.0426667,34.467165,29.054042)"/>
<g clip-path="url(#clip1)" clip-rule="nonzero">
<use xlink:href="#surface5" mask="url(#mask0)"/>
</g>
<g clip-path="url(#clip3)" clip-rule="nonzero">
<use xlink:href="#surface8" mask="url(#mask1)"/>
</g>
<g clip-path="url(#clip5)" clip-rule="nonzero">
<use xlink:href="#surface11" mask="url(#mask2)"/>
</g>
<g clip-path="url(#clip7)" clip-rule="nonzero">
<use xlink:href="#surface14" mask="url(#mask3)"/>
</g>
<g clip-path="url(#clip9)" clip-rule="nonzero">
<use xlink:href="#surface17" mask="url(#mask4)"/>
</g>
<g clip-path="url(#clip11)" clip-rule="nonzero">
<use xlink:href="#surface20" mask="url(#mask5)"/>
</g>
<g clip-path="url(#clip13)" clip-rule="nonzero">
<use xlink:href="#surface23" mask="url(#mask6)"/>
</g>
<g clip-path="url(#clip15)" clip-rule="nonzero">
<use xlink:href="#surface26" mask="url(#mask7)"/>
</g>
<g clip-path="url(#clip17)" clip-rule="nonzero">
<use xlink:href="#surface29" mask="url(#mask8)"/>
</g>
<g clip-path="url(#clip19)" clip-rule="nonzero">
<use xlink:href="#surface32" mask="url(#mask9)"/>
</g>
<g clip-path="url(#clip21)" clip-rule="nonzero">
<use xlink:href="#surface35" mask="url(#mask10)"/>
</g>
<g clip-path="url(#clip23)" clip-rule="nonzero">
<use xlink:href="#surface38" mask="url(#mask11)"/>
</g>
<g clip-path="url(#clip25)" clip-rule="nonzero">
<use xlink:href="#surface41" mask="url(#mask12)"/>
</g>
<g clip-path="url(#clip27)" clip-rule="nonzero">
<use xlink:href="#surface44" mask="url(#mask13)"/>
</g>
<g clip-path="url(#clip29)" clip-rule="nonzero">
<use xlink:href="#surface47" mask="url(#mask14)"/>
</g>
<g clip-path="url(#clip31)" clip-rule="nonzero">
<use xlink:href="#surface50" mask="url(#mask15)"/>
</g>
<g clip-path="url(#clip33)" clip-rule="nonzero">
<use xlink:href="#surface53" mask="url(#mask16)"/>
</g>
</g>
</svg>
